<?xml version="1.0" standalone="no"?><!DOCTYPE svg PUBLIC "-//W3C//DTD SVG 1.1//EN" "http://www.w3.org/Graphics/SVG/1.1/DTD/svg11.dtd"><svg t="1550047246860" class="icon" style="fill:#fff" viewBox="0 0 1024 1024" version="1.1" xmlns="http://www.w3.org/2000/svg" p-id="1083" xmlns:xlink="http://www.w3.org/1999/xlink" width="128" height="128"><defs><style type="text/css"></style></defs><path d="M512.002558 111.352087c107.019409 0 207.623711 41.678238 283.284925 117.362988 75.680657 75.674517 117.360941 176.280866 117.360941 283.286971 0 107.022479-41.678238 207.625758-117.362988 283.286971-75.673493 75.679633-176.278819 117.358895-283.281855 117.358895-107.025549 0-207.630874-41.678238-283.292088-117.360941-75.679633-75.676563-117.358895-176.282912-117.358895-283.284925 0-107.018386 41.678238-207.624734 117.360941-283.289018C304.390104 153.031349 404.998499 111.352087 512.002558 111.352087M512.002558 64.280002c-119.596865 0-232.014214 46.582945-316.576145 131.148969-84.561931 84.541465-131.146922 196.975187-131.146922 316.573075 0 119.594819 46.584991 232.013191 131.146922 316.570006 84.561931 84.587514 196.9977 131.146922 316.576145 131.146922 119.575376 0 232.010121-46.581921 316.567959-131.146922 84.569094-84.540442 131.148969-196.975187 131.148969-316.570006 0-119.597889-46.580898-232.013191-131.148969-316.573075C744.011656 110.843504 631.597377 64.280002 512.002558 64.280002L512.002558 64.280002z" p-id="1084"></path><path d="M511.999488 696.175673" p-id="1085"></path><path d="M635.508453 292.582685c-29.627784-26.409486-68.285223-39.634696-115.995851-39.634696-54.130851 0-96.895841 15.895015-128.330784 47.706535-31.428803 31.813566-47.136553 75.1557-47.136553 130.048915l0.060375 0c0.829901 17.228383 15.057951 30.94171 32.492018 30.94171s31.66314-13.713326 32.494065-30.94171l0.021489 0c0-0.413416 0.007163-0.819668 0.00921-1.231037 0.001023-0.119727 0.00921-0.23843 0.00921-0.360204 0-0.068562-0.005117-0.138146-0.005117-0.206708 0.518816-81.388658 36.263925-122.102942 107.314121-122.102942 27.443026 0 50.081629 7.968485 67.905576 23.865547s26.746154 36.285414 26.746154 61.164035c0 28.968775-16.530488 58.347896-49.638537 88.10257l-24.626887 21.935592c-24.115234 21.533432-39.590694 40.268122-46.372144 56.164161-6.78145 15.915481-10.168594 41.564651-10.168594 76.957743l0.008186 0.080841c-0.080841 0.900509-0.128937 1.810229-0.128937 2.731204 0 16.733103 13.563924 30.293957 30.293957 30.293957 15.963577 0 29.031197-12.345166 30.199813-28.009937l0.073678-0.089028 0.334621-11.158131c0-36.427654 17.291828-68.730361 51.92051-96.957239 57.988716-47.432289 86.962607-92.850711 86.962607-136.193869C679.952688 353.36605 665.140331 319.010591 635.508453 292.582685z" p-id="1086"></path><path d="M511.999488 743.097332m-40.932248 0a40 40 0 1 0 81.864496 0 40 40 0 1 0-81.864496 0Z" p-id="1087"></path></svg>